<svg viewBox="0 0 132 32" fill="none" xmlns="http://www.w3.org/2000/svg"><path d="M18.1504 1.80683C18.4419 1.90046 18.7499 1.90626 19.0501 1.98251C21.2148 2.53657 22.645 4.442 22.7859 6.62446C22.8286 7.29242 22.6586 8.46328 22.8267 9.04244C23.0628 9.85326 24.2666 10.0994 24.8476 9.48356C26.8802 7.53663 28.7029 5.10224 30.7413 3.19585C31.5351 2.45356 32.4933 1.98872 33.5611 1.7918C34.0537 1.77794 34.5082 1.76243 34.9183 1.80587C37.048 1.80587 39.2166 3.85555 39.2166 6.11673L39.2273 23.1941C38.9941 25.8795 34.9785 25.8197 34.7239 23.3206C34.5374 21.4866 34.8677 19.3563 34.7259 17.4952C34.6141 16.0348 33.1703 15.2597 32.0452 16.3302C29.554 18.7008 27.3359 21.6053 24.8369 23.9992C22.3001 26.2193 18.2835 25.2646 17.0758 22.1227C16.5074 20.643 17.0146 19.3611 16.7513 17.9798C16.5783 17.0715 15.4863 16.6593 14.7566 17.2375L8.29933 24.0339C3.26645 27.9297 -2.86921 21.6777 1.47968 16.752C5.60606 12.0782 10.227 7.80015 14.365 3.13021C15.1287 2.43715 16.3335 1.90047 17.3673 1.80491H18.1504V1.80683Z" fill="#18C900"></path><path d="M120.955 14.7684V24.2879H118.517V3.18848H120.955V10.9359H121.162C121.533 10.1186 122.091 9.46953 122.835 8.98875C123.585 8.5011 124.584 8.25728 125.83 8.25728C126.911 8.25728 127.858 8.47363 128.67 8.90633C129.483 9.33216 130.113 9.98808 130.561 10.8741C131.015 11.7532 131.242 12.8728 131.242 14.2327V24.2879H128.805V14.3975C128.805 13.1406 128.478 12.1688 127.824 11.4819C127.176 10.7882 126.278 10.4414 125.128 10.4414C124.329 10.4414 123.613 10.6097 122.979 10.9462C122.353 11.2828 121.857 11.7738 121.492 12.4195C121.134 13.0651 120.955 13.8481 120.955 14.7684Z" fill="#f0f0f0"></path><path d="M100.793 30.2216V8.46288H103.148V10.9767H103.437C103.616 10.7019 103.864 10.3517 104.181 9.92583C104.505 9.49313 104.966 9.1085 105.565 8.77196C106.171 8.42854 106.99 8.25684 108.023 8.25684C109.359 8.25684 110.537 8.58995 111.556 9.25617C112.575 9.9224 113.37 10.8668 113.942 12.0893C114.513 13.3119 114.799 14.7542 114.799 16.4164C114.799 18.0922 114.513 19.5449 113.942 20.7743C113.37 21.9968 112.578 22.9447 111.566 23.6178C110.554 24.284 109.387 24.6171 108.065 24.6171C107.045 24.6171 106.23 24.4488 105.617 24.1123C105.004 23.7689 104.532 23.3808 104.202 22.9481C103.871 22.5085 103.616 22.1445 103.437 21.856H103.231V30.2216H100.793ZM103.189 16.3752C103.189 17.5702 103.365 18.6245 103.716 19.538C104.067 20.4446 104.58 21.1555 105.255 21.6706C105.93 22.1789 106.756 22.433 107.734 22.433C108.753 22.433 109.604 22.1651 110.285 21.6294C110.974 21.0868 111.49 20.3588 111.835 19.4453C112.186 18.5249 112.361 17.5016 112.361 16.3752C112.361 15.2625 112.189 14.2597 111.845 13.3668C111.507 12.4671 110.995 11.7562 110.306 11.2342C109.624 10.7054 108.767 10.441 107.734 10.441C106.743 10.441 105.909 10.6916 105.235 11.193C104.56 11.6875 104.05 12.3812 103.706 13.2741C103.362 14.1601 103.189 15.1938 103.189 16.3752Z" fill="#f0f0f0"></path><path d="M89.9715 24.2876V8.46308H92.3264V10.8532H92.4917C92.7809 10.0703 93.3042 9.43494 94.0617 8.94729C94.8191 8.45964 95.6729 8.21582 96.6232 8.21582C96.8022 8.21582 97.026 8.21925 97.2945 8.22612C97.5631 8.23299 97.7662 8.24329 97.9039 8.25703V10.7296C97.8213 10.709 97.6319 10.6781 97.3358 10.6369C97.0466 10.5888 96.7402 10.5648 96.4166 10.5648C95.6454 10.5648 94.9568 10.7262 94.3509 11.049C93.7518 11.3649 93.2767 11.8045 92.9255 12.3677C92.5812 12.924 92.4091 13.5594 92.4091 14.2737V24.2876H89.9715Z" fill="#f0f0f0"></path><path d="M79.0617 24.6171C77.6294 24.6171 76.3728 24.2771 75.2917 23.5972C74.2175 22.9172 73.3775 21.9659 72.7715 20.7434C72.1724 19.5208 71.8729 18.0922 71.8729 16.4576C71.8729 14.8092 72.1724 13.3703 72.7715 12.1409C73.3775 10.9114 74.2175 9.95674 75.2917 9.27678C76.3728 8.59682 77.6294 8.25684 79.0617 8.25684C80.4939 8.25684 81.7471 8.59682 82.8213 9.27678C83.9024 9.95674 84.7425 10.9114 85.3415 12.1409C85.9475 13.3703 86.2504 14.8092 86.2504 16.4576C86.2504 18.0922 85.9475 19.5208 85.3415 20.7434C84.7425 21.9659 83.9024 22.9172 82.8213 23.5972C81.7471 24.2771 80.4939 24.6171 79.0617 24.6171ZM79.0617 22.433C80.1496 22.433 81.0448 22.1548 81.7471 21.5985C82.4495 21.0422 82.9694 20.3107 83.3068 19.4041C83.6442 18.4975 83.8129 17.5153 83.8129 16.4576C83.8129 15.3999 83.6442 14.4143 83.3068 13.5008C82.9694 12.5873 82.4495 11.849 81.7471 11.2858C81.0448 10.7226 80.1496 10.441 79.0617 10.441C77.9737 10.441 77.0786 10.7226 76.3762 11.2858C75.6739 11.849 75.154 12.5873 74.8166 13.5008C74.4792 14.4143 74.3105 15.3999 74.3105 16.4576C74.3105 17.5153 74.4792 18.4975 74.8166 19.4041C75.154 20.3107 75.6739 21.0422 76.3762 21.5985C77.0786 22.1548 77.9737 22.433 79.0617 22.433Z" fill="#f0f0f0"></path><path d="M47.0711 3.18848H50.1284L57.3172 20.7026H57.5651L64.7539 3.18848H67.8112V24.2879H65.4149V8.25728H65.2083L58.598 24.2879H56.2843L49.674 8.25728H49.4674V24.2879H47.0711V3.18848Z" fill="#f0f0f0"></path></svg>