<svg xmlns="http://www.w3.org/2000/svg" viewBox="0 0 32 32">
  <circle cx="16" cy="16" r="16" fill="#2775CA"/>
  <path fill="#fff" d="M20.022 18.124c0-2.124-1.3-2.853-3.898-3.156-1.852-.235-2.223-.706-2.223-1.529 0-.824.617-1.353 1.852-1.353 1.116 0 1.733.37 2.027 1.294a.268.268 0 00.254.176h1.146a.247.247 0 00.254-.253v-.06a3.028 3.028 0 00-2.733-2.47V9.88a.27.27 0 00-.273-.253h-1.086a.27.27 0 00-.274.253v1.833c-1.733.235-2.831 1.353-2.831 2.794 0 2.006 1.24 2.794 3.837 3.098 1.734.294 2.284.647 2.284 1.588 0 .941-.824 1.588-1.97 1.588-1.55 0-2.108-.647-2.284-1.588a.27.27 0 00-.254-.235h-1.204a.252.252 0 00-.254.253v.06c.255 1.647 1.3 2.794 3.056 3.098v1.882a.27.27 0 00.274.253h1.086a.27.27 0 00.273-.253v-1.882c1.733-.294 2.89-1.47 2.89-3.01z"/>
</svg>
