<svg xmlns="http://www.w3.org/2000/svg" viewBox="0 0 32 32">
  <circle cx="16" cy="16" r="16" fill="#26A17B"/>
  <path fill="#fff" d="M17.922 17.383v-.002c-.11.008-.677.042-1.942.042-1.01 0-1.721-.03-1.971-.042v.003c-3.888-.171-6.79-.848-6.79-1.661 0-.81 2.902-1.49 6.79-1.664v2.65c.254.018.982.061 1.988.061 1.207 0 1.812-.05 1.925-.06v-2.65c3.88.173 6.775.852 6.775 1.663 0 .81-2.895 1.487-6.775 1.66zm0-3.59v-2.366h5.414V9H8.595v2.427h5.414v2.365c-4.4.198-7.709 1.05-7.709 2.077 0 1.028 3.309 1.878 7.709 2.077v7.434h3.913v-7.44c4.393-.196 7.694-1.046 7.694-2.071 0-1.026-3.301-1.875-7.694-2.076z"/>
</svg>
