<svg viewBox="0 0 32 32" fill="none" xmlns="http://www.w3.org/2000/svg">
  <rect width="32" height="32" rx="8" fill="#0E0E11"/>
  <g transform="translate(4 7) scale(0.72)">
    <path d="M18.1504 1.80683C18.4419 1.90046 18.7499 1.90626 19.0501 1.98251C21.2148 2.53657 22.645 4.442 22.7859 6.62446C22.8286 7.29242 22.6586 8.46328 22.8267 9.04244C23.0628 9.85326 24.2666 10.0994 24.8476 9.48356C26.8802 7.53663 28.7029 5.10224 30.7413 3.19585C31.5351 2.45356 32.4933 1.98872 33.5611 1.7918C34.0537 1.77794 34.5082 1.76243 34.9183 1.80587C37.048 1.80587 39.2166 3.85555 39.2166 6.11673L39.2273 23.1941C38.9941 25.8795 34.9785 25.8197 34.7239 23.3206C34.5374 21.4866 34.8677 19.3563 34.7259 17.4952C34.6141 16.0348 33.1703 15.2597 32.0452 16.3302C29.554 18.7008 27.3359 21.6053 24.8369 23.9992C22.3001 26.2193 18.2835 25.2646 17.0758 22.1227C16.5074 20.643 17.0146 19.3611 16.7513 17.9798C16.5783 17.0715 15.4863 16.6593 14.7566 17.2375L8.29933 24.0339C3.26645 27.9297 -2.86921 21.6777 1.47968 16.752C5.60606 12.0782 10.227 7.80015 14.365 3.13021C15.1287 2.43715 16.3335 1.90047 17.3673 1.80491H18.1504V1.80683Z" fill="#18C900"/>
  </g>
</svg>
